<?xml version="1.0" standalone="no"?>
<!DOCTYPE svg PUBLIC "-//W3C//DTD SVG 20010904//EN"
 "http://www.w3.org/TR/2001/REC-SVG-20010904/DTD/svg10.dtd">
<svg version="1.0" xmlns="http://www.w3.org/2000/svg"
 width="512.000000pt" height="512.000000pt" viewBox="0 0 512.000000 512.000000"
 preserveAspectRatio="xMidYMid meet">
<metadata>
Created by potrace 1.11, written by Peter Selinger 2001-2013
</metadata>
<g transform="translate(0.000000,512.000000) scale(0.100000,-0.100000)"
fill="#000000" stroke="none">
<path d="M126 3861 c-3 -4 1 -46 9 -92 9 -46 24 -142 35 -214 11 -71 34 -209
51 -305 20 -117 31 -210 31 -280 1 -98 -2 -113 -40 -220 -22 -63 -73 -196
-112 -295 -40 -101 -72 -198 -73 -220 l-2 -40 49 -3 c29 -2 77 5 120 18 154
47 291 139 492 331 55 53 118 106 141 117 93 48 243 48 319 1 61 -38 59 -99
-10 -245 -25 -53 -44 -99 -42 -102 3 -2 16 -2 29 2 42 10 113 86 190 201 77
115 112 148 181 166 72 20 284 -6 385 -47 95 -38 94 -117 -6 -419 -50 -153
-71 -199 -143 -320 -78 -130 -77 -168 4 -121 117 69 353 414 457 670 29 71 63
96 130 96 78 0 224 -60 293 -120 65 -58 70 -172 16 -385 -34 -132 -80 -255
-154 -410 -30 -63 -51 -117 -48 -119 13 -8 66 21 109 58 62 54 118 134 218
311 61 107 107 176 142 211 58 59 179 124 229 124 85 0 205 -70 249 -144 49
-83 29 -239 -72 -558 -63 -202 -63 -199 21 -223 219 -63 847 -35 1199 54 119
30 277 87 277 100 0 16 -309 84 -608 135 -79 13 -146 27 -149 30 -3 3 19 46
48 95 37 61 59 89 69 86 8 -2 111 -20 227 -40 234 -40 395 -77 548 -125 l99
-32 23 26 c45 53 54 145 27 287 -38 203 -149 462 -283 662 -225 336 -855 843
-1188 958 -109 37 -112 30 -83 -166 55 -379 41 -631 -41 -700 -52 -43 -156
-30 -294 35 -96 46 -111 86 -160 430 -31 216 -48 301 -76 390 -29 89 -86 196
-118 221 -24 20 -26 20 -30 3 -2 -10 5 -83 14 -163 29 -239 10 -503 -44 -609
-54 -104 -160 -135 -334 -96 -167 38 -211 89 -246 284 -35 195 -118 457 -177
558 -27 45 -67 73 -84 56 -6 -6 1 -49 17 -114 34 -139 45 -463 19 -553 -19
-64 -81 -129 -142 -147 -76 -21 -200 -30 -275 -20 -120 17 -170 59 -204 170
-15 51 -68 146 -98 178 -39 41 -62 43 -52 5 37 -146 46 -268 24 -316 -16 -36
-69 -63 -146 -76 -72 -11 -141 0 -198 33 -72 43 -105 91 -276 406 -146 269
-296 462 -401 514 -55 28 -73 31 -82 17z m322 -608 c30 -43 59 -104 92 -193
16 -45 48 -116 70 -157 l41 -74 -20 -42 c-32 -65 -101 -137 -211 -221 -139
-105 -161 -102 -89 11 58 92 107 193 118 244 11 47 -4 199 -35 352 -21 106 -7
138 34 80z m3770 -542 c20 -10 71 -49 114 -84 l76 -66 106 29 105 28 11 -56
c7 -32 20 -71 30 -89 l19 -32 -37 -11 c-20 -5 -44 -10 -53 -10 -8 0 -23 -6
-32 -12 -16 -12 -13 -19 26 -78 64 -95 109 -178 100 -183 -20 -12 -147 -47
-152 -42 -3 3 -32 47 -66 97 -33 51 -67 96 -77 102 -26 16 -91 -20 -152 -84
l-54 -57 -71 55 -70 54 37 45 c20 25 70 69 109 98 l73 53 -43 34 c-23 19 -61
47 -84 63 -24 15 -43 30 -43 33 0 8 81 132 87 132 2 0 20 -9 41 -19z"/>
</g>
</svg>
